<svg id="Capa_1" enable-background="new 0 0 512 512" height="512" viewBox="0 0 512 512" width="512" xmlns="http://www.w3.org/2000/svg"><g><path d="m331 264.806v-37.806c0-11.517-4.354-22.032-11.495-30 7.142-7.968 11.495-18.483 11.495-30v-152c0-8.284-6.716-15-15-15h-120c-8.284 0-15 6.716-15 15v152c0 11.517 4.354 22.032 11.495 30-7.141 7.968-11.495 18.483-11.495 30v37.806c-36.154 24.248-60 65.487-60 112.194 0 74.439 60.561 135 135 135s135-60.561 135-135c0-46.708-23.846-87.947-60-112.194zm-30-97.806c0 8.271-6.729 15-15 15h-15v-152h30zm-90-137h30v152h-15c-8.271 0-15-6.729-15-15zm0 197c0-8.271 6.729-15 15-15h60c8.271 0 15 6.729 15 15v22.722c-14.082-4.994-29.228-7.722-45-7.722s-30.918 2.728-45 7.722zm45 255c-57.897 0-105-47.103-105-105 0-57.992 47.218-105 105-105 57.734 0 105 46.961 105 105 0 57.897-47.103 105-105 105z"/><path d="m315.298 343.626-31.594-4.758-14.288-28.576c-2.54-5.082-7.734-8.292-13.416-8.292s-10.876 3.21-13.416 8.292l-14.288 28.576-31.593 4.758c-5.618.846-10.275 4.794-12.031 10.197s-.308 11.335 3.74 15.322l22.762 22.419-5.238 31.518c-.932 5.604 1.384 11.254 5.98 14.594 4.594 3.339 10.685 3.796 15.728 1.178l28.356-14.721 28.356 14.721c5.083 2.638 11.168 2.135 15.728-1.178 4.597-3.34 6.912-8.99 5.98-14.594l-5.238-31.518 22.763-22.419c4.048-3.987 5.496-9.918 3.74-15.322-1.756-5.403-6.413-9.35-12.031-10.197zm-41.07 32.029c-3.479 3.426-5.072 8.33-4.271 13.146l1.596 9.604-8.641-4.486c-4.333-2.25-9.49-2.249-13.822 0l-8.641 4.486 1.596-9.604c.801-4.816-.793-9.72-4.271-13.146l-6.936-6.832 9.627-1.45c4.827-.727 8.999-3.758 11.182-8.125l4.354-8.708 4.354 8.708c2.183 4.367 6.354 7.397 11.182 8.125l9.628 1.45z"/></g></svg>